# This file uses centimeters as units for non-parametric coordinates.

mtllib directory.mtl
g default
v 60.300697 220.992706 -22.994225
v 60.300697 -1.086468 -22.994242
v 60.300697 220.992706 24.218380
v 60.300697 -1.086472 24.218365
v -64.436775 220.992706 -22.994225
v -64.436775 -1.086468 -22.994242
v -64.436775 220.992706 24.218380
v -64.436775 -1.086472 24.218365
v 48.601170 234.041794 19.790161
v -52.737251 234.041794 19.790161
v 48.601170 234.041794 -18.566008
v -52.737251 234.041794 -18.566008
v 31.461897 243.194809 13.303024
v -35.597984 243.194809 13.303024
v 31.461897 243.194809 -12.078863
v -35.597984 243.194809 -12.078863
v 7.597744 247.660309 4.270546
v -11.733841 247.660309 4.270546
v 7.597744 247.660309 -3.046375
v -11.733841 247.660309 -3.046375
v -55.000969 212.401688 24.218380
v -55.000969 7.086323 24.218365
v 51.968754 212.401688 24.218380
v 51.968754 7.086323 24.218365
v -55.000969 7.086323 -22.994270
v -55.000969 212.401688 -22.994263
v 51.968754 212.401688 -22.994263
v 51.968754 7.086323 -22.994270
v 51.968754 7.086323 19.832222
v -55.000969 7.086323 19.832222
v 51.968754 212.401688 19.832233
v -55.000969 212.401688 19.832233
v 51.968754 7.086323 -20.108418
v -55.000969 7.086323 -20.108418
v -55.000969 212.401688 -20.108410
v 51.968754 212.401688 -20.108410
vt 0.880034 0.000000
vt 0.880034 0.552180
vt 0.618463 0.546218
vt 0.634592 0.497907
vt 0.657051 0.437541
vt 0.000005 0.332204
vt 0.564118 0.331539
vt 0.728191 0.539492
vt 0.697702 0.497907
vt 0.675244 0.437541
vt 0.876398 0.708596
vt 0.000005 0.655122
vt 0.564465 0.655104
vt 0.728191 0.287523
vt 0.697702 0.329109
vt 0.675244 0.389475
vt 0.876398 0.591206
vt 0.569438 0.331557
vt 0.000000 0.330182
vt 0.618463 0.280797
vt 0.634592 0.329109
vt 0.657051 0.389475
vt 0.571404 0.001902
vt 0.000000 0.000000
vt 0.604103 0.539492
vt 0.631998 0.496877
vt 0.022262 0.024142
vt 0.550237 0.025691
vt 0.021821 0.309053
vt 0.549014 0.310562
vt 0.020849 0.355789
vt 0.542128 0.355389
vt 0.542850 0.634141
vt 0.020306 0.634415
vt 0.543767 0.034082
vt 0.541936 0.302661
vt 0.028337 0.300712
vt 0.029308 0.032046
vt 0.024561 0.628927
vt 0.025449 0.361000
vt 0.537898 0.360886
vt 0.538188 0.629000
vt 0.607452 0.589795
vt 0.569840 0.568582
vt 0.569840 0.258433
vt 0.762454 0.568582
vt 0.724842 0.237221
vt 0.762644 0.552180
vt 0.762644 0.000000
vt 0.882610 0.000000
vt 0.882610 0.552181
vt 0.566249 0.708596
vt 1.000000 0.552181
vt 1.000000 0.000000
vt 0.566249 0.591206
vt 0.713832 0.280797
vt 0.762454 0.258433
vt 0.700297 0.330139
vt 0.700297 0.496877
vt 0.713832 0.546218
vt 0.724842 0.589795
vt 0.631998 0.330139
vt 0.604103 0.287523
vt 0.607452 0.237221
vn -0.744559 0.667557 0.000000
vn -0.744559 0.667557 0.000000
vn -0.744559 0.667557 0.000000
vn -0.744559 0.667557 0.000000
vn 0.000000 -0.000000 1.000000
vn 0.000000 -0.000000 1.000000
vn 0.000000 -0.000000 1.000000
vn 0.000000 -0.000000 1.000000
vn -1.000000 0.000000 0.000000
vn -1.000000 0.000000 0.000000
vn -1.000000 0.000000 0.000000
vn -1.000000 0.000000 0.000000
vn 0.000000 -1.000000 -0.000000
vn 0.000000 -1.000000 -0.000000
vn 0.000000 -1.000000 -0.000000
vn 0.000000 -1.000000 -0.000000
vn 1.000000 0.000000 0.000000
vn 1.000000 0.000000 0.000000
vn 1.000000 0.000000 0.000000
vn 1.000000 0.000000 0.000000
vn 0.000000 0.000000 -1.000000
vn 0.000000 0.000000 -1.000000
vn 0.000000 0.000000 -1.000000
vn 0.000000 0.000000 -1.000000
vn -0.471074 0.882094 0.000000
vn -0.471074 0.882094 0.000000
vn -0.471074 0.882094 0.000000
vn -0.471074 0.882094 0.000000
vn 0.744559 0.667557 0.000000
vn 0.744559 0.667557 0.000000
vn 0.744559 0.667557 0.000000
vn 0.744559 0.667557 0.000000
vn 0.000000 0.321353 -0.946960
vn 0.000000 0.321353 -0.946960
vn 0.000000 0.321353 -0.946960
vn 0.000000 0.321353 -0.946960
vn 0.000000 0.321352 0.946960
vn 0.000000 0.321352 0.946960
vn 0.000000 0.321352 0.946960
vn 0.000000 0.321352 0.946960
vn 0.000000 0.896433 -0.443180
vn 0.000000 0.896433 -0.443180
vn 0.000000 0.896433 -0.443180
vn 0.000000 0.896433 -0.443180
vn 0.000000 0.578239 0.815868
vn 0.000000 0.578239 0.815868
vn 0.000000 0.578239 0.815868
vn 0.000000 0.578239 0.815868
vn 0.000000 0.578239 -0.815868
vn 0.000000 0.578239 -0.815868
vn 0.000000 0.578239 -0.815868
vn 0.000000 0.578239 -0.815868
vn 0.471074 0.882094 0.000000
vn 0.471074 0.882094 0.000000
vn 0.471074 0.882094 0.000000
vn 0.471074 0.882094 0.000000
vn 0.000000 1.000000 0.000000
vn 0.000000 1.000000 0.000000
vn 0.000000 1.000000 0.000000
vn 0.000000 1.000000 0.000000
vn 0.183929 0.982940 0.000000
vn 0.183929 0.982940 0.000000
vn 0.183929 0.982940 0.000000
vn 0.183929 0.982940 0.000000
vn -0.183929 0.982940 0.000000
vn -0.183929 0.982940 0.000000
vn -0.183929 0.982940 0.000000
vn -0.183929 0.982940 0.000000
vn 0.000000 0.896433 0.443180
vn 0.000000 0.896433 0.443180
vn 0.000000 0.896433 0.443180
vn 0.000000 0.896433 0.443180
vn 0.000000 -0.000000 1.000000
vn 0.000000 -0.000000 1.000000
vn 0.000000 -0.000000 1.000000
vn 0.000000 -0.000000 1.000000
vn 0.000000 -0.000000 1.000000
vn 0.000000 -0.000000 1.000000
vn 0.000000 -0.000000 1.000000
vn 0.000000 -0.000000 1.000000
vn 0.000000 0.000000 -1.000000
vn 0.000000 0.000000 -1.000000
vn -0.000002 0.000002 -1.000000
vn -0.000002 -0.000001 -1.000000
vn 0.000000 0.000000 -1.000000
vn 0.000003 0.000002 -1.000000
vn 0.000000 0.000000 -1.000000
vn 0.000003 -0.000001 -1.000000
vn 0.000000 1.000000 0.000000
vn 0.000000 1.000000 0.000000
vn 0.000000 1.000000 0.000000
vn 0.000000 1.000000 0.000000
vn -1.000000 0.000000 0.000000
vn -1.000000 0.000000 0.000000
vn -1.000000 0.000000 0.000000
vn -1.000000 0.000000 0.000000
vn 0.000000 -1.000000 0.000000
vn 0.000000 -1.000000 0.000000
vn 0.000000 -1.000000 0.000000
vn 0.000000 -1.000000 0.000000
vn 1.000000 0.000000 0.000000
vn 1.000000 0.000000 0.000000
vn 1.000000 0.000000 0.000000
vn 1.000000 0.000000 0.000000
vn 0.000000 1.000000 0.000000
vn 0.000000 1.000000 0.000000
vn 0.000000 1.000000 0.000000
vn 0.000000 1.000000 0.000000
vn 1.000000 0.000000 0.000000
vn 1.000000 0.000000 0.000000
vn 1.000000 0.000000 0.000000
vn 1.000000 0.000000 0.000000
vn 0.000000 -1.000000 0.000000
vn 0.000000 -1.000000 0.000000
vn 0.000000 -1.000000 0.000000
vn 0.000000 -1.000000 0.000000
vn -1.000000 0.000000 0.000000
vn -1.000000 0.000000 0.000000
vn -1.000000 0.000000 0.000000
vn -1.000000 0.000000 0.000000
s off
g Cube
usemtl CubeSG
f 5/61/1 7/43/2 10/3/3 12/60/4
s 1
f 21/27/5 23/29/6 3/19/7 7/24/8
s off
f 8/1/9 7/2/10 5/48/11 6/49/12
f 6/11/13 2/52/14 4/55/15 8/17/16
f 2/54/17 1/53/18 3/51/19 4/50/20
f 33/39/21 34/40/22 35/41/23 36/42/24
f 12/60/25 10/3/26 14/4/27 16/9/28
f 3/64/29 1/47/30 11/56/31 9/20/32
f 1/57/33 5/46/34 12/8/35 11/14/36
f 7/44/37 3/45/38 9/63/39 10/25/40
f 15/58/41 16/59/42 20/10/43 19/16/44
f 10/25/45 9/63/46 13/62/47 14/26/48
f 11/14/49 12/8/50 16/59/51 15/58/52
f 9/20/53 11/56/54 15/15/55 13/21/56
f 19/16/57 20/10/58 18/5/59 17/22/60
f 13/21/61 15/15/62 19/16/63 17/22/64
f 16/9/65 14/4/66 18/5/67 20/10/68
f 14/26/69 13/62/70 17/22/71 18/5/72
s 1
f 8/23/73 22/28/74 21/27/5 7/24/8
f 4/18/75 3/19/7 23/29/6 24/30/76
s off
f 30/35/77 29/36/78 31/37/79 32/38/80
s 1
f 4/18/75 24/30/76 22/28/74 8/23/73
s 2
f 6/6/81 5/7/82 26/32/83 25/31/84
f 1/13/85 27/33/86 26/32/83 5/7/82
f 2/12/87 28/34/88 27/33/86 1/13/85
f 6/6/81 25/31/84 28/34/88 2/12/87
s off
f 22/28/89 24/30/90 29/36/91 30/35/92
f 24/30/93 23/29/94 31/37/95 29/36/96
f 23/29/97 21/27/98 32/38/99 31/37/100
f 21/27/101 22/28/102 30/35/103 32/38/104
f 28/34/105 25/31/106 34/40/107 33/39/108
f 25/31/109 26/32/110 35/41/111 34/40/112
f 26/32/113 27/33/114 36/42/115 35/41/116
f 27/33/117 28/34/118 33/39/119 36/42/120
